<svg width="378" height="40" viewBox="0 0 378 40" fill="none" xmlns="http://www.w3.org/2000/svg">
<path d="M2.5 35H37.5V37.5H2.5V35ZM33.75 13.75C34.0815 13.75 34.3995 13.6183 34.6339 13.3839C34.8683 13.1495 35 12.8315 35 12.5V8.74999C34.9999 8.49309 34.9206 8.24248 34.773 8.03223C34.6254 7.82199 34.4166 7.66233 34.175 7.57499L20.425 2.57499C20.1504 2.4757 19.8496 2.4757 19.575 2.57499L5.825 7.57499C5.58341 7.66233 5.3746 7.82199 5.22698 8.03223C5.07937 8.24248 5.00011 8.49309 5 8.74999V12.5C5 12.8315 5.1317 13.1495 5.36612 13.3839C5.60054 13.6183 5.91848 13.75 6.25 13.75H7.5V30H5V32.5H35V30H32.5V13.75H33.75ZM7.5 9.62499L20 5.07499L32.5 9.62499V11.25H7.5V9.62499ZM22.5 30H17.5V13.75H22.5V30ZM10 13.75H15V30H10V13.75ZM30 30H25V13.75H30V30Z" fill="#F8F8F8"/>
<path d="M61.592 30L58.072 23.884H56.158V30H53.65V14.71H58.93C60.1033 14.71 61.0933 14.9153 61.9 15.326C62.7213 15.7367 63.33 16.2867 63.726 16.976C64.1367 17.6653 64.342 18.4353 64.342 19.286C64.342 20.2833 64.0487 21.1927 63.462 22.014C62.89 22.8207 62.0027 23.3707 60.8 23.664L64.584 30H61.592ZM56.158 21.882H58.93C59.8687 21.882 60.5727 21.6473 61.042 21.178C61.526 20.7087 61.768 20.078 61.768 19.286C61.768 18.494 61.5333 17.878 61.064 17.438C60.5947 16.9833 59.8833 16.756 58.93 16.756H56.158V21.882ZM69.3264 16.272C68.8717 16.272 68.4904 16.118 68.1824 15.81C67.8744 15.502 67.7204 15.1207 67.7204 14.666C67.7204 14.2113 67.8744 13.83 68.1824 13.522C68.4904 13.214 68.8717 13.06 69.3264 13.06C69.7664 13.06 70.1404 13.214 70.4484 13.522C70.7564 13.83 70.9104 14.2113 70.9104 14.666C70.9104 15.1207 70.7564 15.502 70.4484 15.81C70.1404 16.118 69.7664 16.272 69.3264 16.272ZM70.5584 17.878V30H68.0504V17.878H70.5584ZM78.7512 30.198C77.7978 30.198 76.9398 30.0293 76.1772 29.692C75.4292 29.34 74.8352 28.8707 74.3952 28.284C73.9552 27.6827 73.7205 27.0153 73.6912 26.282H76.2872C76.3312 26.7953 76.5732 27.228 77.0132 27.58C77.4678 27.9173 78.0325 28.086 78.7072 28.086C79.4112 28.086 79.9538 27.954 80.3352 27.69C80.7312 27.4113 80.9292 27.0593 80.9292 26.634C80.9292 26.1793 80.7092 25.842 80.2692 25.622C79.8438 25.402 79.1618 25.16 78.2232 24.896C77.3138 24.6467 76.5732 24.4047 76.0012 24.17C75.4292 23.9353 74.9305 23.576 74.5052 23.092C74.0945 22.608 73.8892 21.97 73.8892 21.178C73.8892 20.5327 74.0798 19.946 74.4612 19.418C74.8425 18.8753 75.3852 18.45 76.0892 18.142C76.8078 17.834 77.6292 17.68 78.5532 17.68C79.9318 17.68 81.0392 18.032 81.8752 18.736C82.7258 19.4253 83.1805 20.3713 83.2392 21.574H80.7312C80.6872 21.0313 80.4672 20.5987 80.0712 20.276C79.6752 19.9533 79.1398 19.792 78.4652 19.792C77.8052 19.792 77.2992 19.9167 76.9472 20.166C76.5952 20.4153 76.4192 20.7453 76.4192 21.156C76.4192 21.4787 76.5365 21.75 76.7712 21.97C77.0058 22.19 77.2918 22.366 77.6292 22.498C77.9665 22.6153 78.4652 22.7693 79.1252 22.96C80.0052 23.1947 80.7238 23.4367 81.2812 23.686C81.8532 23.9207 82.3445 24.2727 82.7552 24.742C83.1658 25.2113 83.3785 25.8347 83.3932 26.612C83.3932 27.3013 83.2025 27.9173 82.8212 28.46C82.4398 29.0027 81.8972 29.428 81.1932 29.736C80.5038 30.044 79.6898 30.198 78.7512 30.198ZM97.7131 23.642C97.7131 24.0967 97.6838 24.5073 97.6251 24.874H88.3631C88.4365 25.842 88.7958 26.6193 89.4411 27.206C90.0865 27.7927 90.8785 28.086 91.8171 28.086C93.1665 28.086 94.1198 27.5213 94.6771 26.392H97.3831C97.0165 27.5067 96.3491 28.4233 95.3811 29.142C94.4278 29.846 93.2398 30.198 91.8171 30.198C90.6585 30.198 89.6171 29.9413 88.6931 29.428C87.7838 28.9 87.0651 28.1667 86.5371 27.228C86.0238 26.2747 85.7671 25.1747 85.7671 23.928C85.7671 22.6813 86.0165 21.5887 86.5151 20.65C87.0285 19.6967 87.7398 18.9633 88.6491 18.45C89.5731 17.9367 90.6291 17.68 91.8171 17.68C92.9611 17.68 93.9805 17.9293 94.8751 18.428C95.7698 18.9267 96.4665 19.6307 96.9651 20.54C97.4638 21.4347 97.7131 22.4687 97.7131 23.642ZM95.0951 22.85C95.0805 21.926 94.7505 21.1853 94.1051 20.628C93.4598 20.0707 92.6605 19.792 91.7071 19.792C90.8418 19.792 90.1011 20.0707 89.4851 20.628C88.8691 21.1707 88.5025 21.9113 88.3851 22.85H95.0951ZM110.449 14.556V17.57H104.157V20.826H108.865V23.752H104.157V30H100.395V14.556H110.449ZM114.819 16.448C114.159 16.448 113.616 16.2573 113.191 15.876C112.78 15.48 112.575 14.996 112.575 14.424C112.575 13.8373 112.78 13.3533 113.191 12.972C113.616 12.576 114.159 12.378 114.819 12.378C115.464 12.378 115.992 12.576 116.403 12.972C116.828 13.3533 117.041 13.8373 117.041 14.424C117.041 14.996 116.828 15.48 116.403 15.876C115.992 16.2573 115.464 16.448 114.819 16.448ZM116.689 17.724V30H112.927V17.724H116.689ZM127.395 17.592C128.832 17.592 129.976 18.0613 130.827 19C131.692 19.924 132.125 21.2 132.125 22.828V30H128.385V23.334C128.385 22.5127 128.172 21.8747 127.747 21.42C127.321 20.9653 126.749 20.738 126.031 20.738C125.312 20.738 124.74 20.9653 124.315 21.42C123.889 21.8747 123.677 22.5127 123.677 23.334V30H119.915V17.724H123.677V19.352C124.058 18.8093 124.571 18.384 125.217 18.076C125.862 17.7533 126.588 17.592 127.395 17.592ZM134.491 23.84C134.491 22.5787 134.726 21.4713 135.195 20.518C135.679 19.5647 136.332 18.8313 137.153 18.318C137.974 17.8047 138.891 17.548 139.903 17.548C140.768 17.548 141.524 17.724 142.169 18.076C142.829 18.428 143.335 18.89 143.687 19.462V17.724H147.449V30H143.687V28.262C143.32 28.834 142.807 29.296 142.147 29.648C141.502 30 140.746 30.176 139.881 30.176C138.884 30.176 137.974 29.9193 137.153 29.406C136.332 28.878 135.679 28.1373 135.195 27.184C134.726 26.216 134.491 25.1013 134.491 23.84ZM143.687 23.862C143.687 22.9233 143.423 22.1827 142.895 21.64C142.382 21.0973 141.751 20.826 141.003 20.826C140.255 20.826 139.617 21.0973 139.089 21.64C138.576 22.168 138.319 22.9013 138.319 23.84C138.319 24.7787 138.576 25.5267 139.089 26.084C139.617 26.6267 140.255 26.898 141.003 26.898C141.751 26.898 142.382 26.6267 142.895 26.084C143.423 25.5413 143.687 24.8007 143.687 23.862ZM158.151 17.592C159.588 17.592 160.732 18.0613 161.583 19C162.448 19.924 162.881 21.2 162.881 22.828V30H159.141V23.334C159.141 22.5127 158.928 21.8747 158.503 21.42C158.077 20.9653 157.505 20.738 156.787 20.738C156.068 20.738 155.496 20.9653 155.071 21.42C154.645 21.8747 154.433 22.5127 154.433 23.334V30H150.671V17.724H154.433V19.352C154.814 18.8093 155.327 18.384 155.973 18.076C156.618 17.7533 157.344 17.592 158.151 17.592ZM165.247 23.862C165.247 22.586 165.504 21.4713 166.017 20.518C166.545 19.5647 167.271 18.8313 168.195 18.318C169.134 17.8047 170.204 17.548 171.407 17.548C172.947 17.548 174.23 17.9513 175.257 18.758C176.298 19.5647 176.98 20.7013 177.303 22.168H173.299C172.962 21.2293 172.309 20.76 171.341 20.76C170.652 20.76 170.102 21.0313 169.691 21.574C169.28 22.102 169.075 22.8647 169.075 23.862C169.075 24.8593 169.28 25.6293 169.691 26.172C170.102 26.7 170.652 26.964 171.341 26.964C172.309 26.964 172.962 26.4947 173.299 25.556H177.303C176.98 26.9933 176.298 28.1227 175.257 28.944C174.216 29.7653 172.932 30.176 171.407 30.176C170.204 30.176 169.134 29.9193 168.195 29.406C167.271 28.8927 166.545 28.1593 166.017 27.206C165.504 26.2527 165.247 25.138 165.247 23.862ZM191.387 23.664C191.387 24.016 191.365 24.3827 191.321 24.764H182.807C182.866 25.5267 183.108 26.1133 183.533 26.524C183.973 26.92 184.509 27.118 185.139 27.118C186.078 27.118 186.731 26.722 187.097 25.93H191.101C190.896 26.7367 190.522 27.4627 189.979 28.108C189.451 28.7533 188.784 29.2593 187.977 29.626C187.171 29.9927 186.269 30.176 185.271 30.176C184.069 30.176 182.998 29.9193 182.059 29.406C181.121 28.8927 180.387 28.1593 179.859 27.206C179.331 26.2527 179.067 25.138 179.067 23.862C179.067 22.586 179.324 21.4713 179.837 20.518C180.365 19.5647 181.099 18.8313 182.037 18.318C182.976 17.8047 184.054 17.548 185.271 17.548C186.459 17.548 187.515 17.7973 188.439 18.296C189.363 18.7947 190.082 19.506 190.595 20.43C191.123 21.354 191.387 22.432 191.387 23.664ZM187.537 22.674C187.537 22.0287 187.317 21.5153 186.877 21.134C186.437 20.7527 185.887 20.562 185.227 20.562C184.597 20.562 184.061 20.7453 183.621 21.112C183.196 21.4787 182.932 21.9993 182.829 22.674H187.537Z" fill="white"/>
</svg>
