<svg width="119" height="30" viewBox="0 0 119 30" fill="none" xmlns="http://www.w3.org/2000/svg">
<path d="M2.94092 27.8251H28.5909V2.17505H2.94092V27.8251ZM23.6539 12.532H18.2339V7.11205H23.6539V12.532ZM7.87692 7.11205H13.2999V17.468H23.6539V22.8881H7.87692V7.11205ZM45.2939 2.17505C42.7573 2.17505 40.2777 2.92723 38.1687 4.33646C36.0596 5.74569 34.4158 7.74868 33.4451 10.0921C32.4744 12.4356 32.2205 15.0142 32.7153 17.502C33.2102 19.9898 34.4316 22.275 36.2252 24.0686C38.0188 25.8623 40.304 27.0837 42.7918 27.5786C45.2797 28.0735 47.8583 27.8195 50.2018 26.8489C52.5453 25.8782 54.5482 24.2344 55.9575 22.1252C57.3667 20.0161 58.1189 17.5365 58.1189 15C58.1149 11.5998 56.7624 8.34009 54.3581 5.9358C51.9538 3.5315 48.6941 2.17902 45.2939 2.17505ZM45.2939 22.8881C43.7338 22.8881 42.2087 22.4254 40.9115 21.5586C39.6144 20.6919 38.6033 19.46 38.0063 18.0186C37.4093 16.5773 37.2531 14.9913 37.5574 13.4611C37.8618 11.931 38.6131 10.5255 39.7162 9.42239C40.8194 8.31924 42.2249 7.56798 43.755 7.26362C45.2851 6.95926 46.8711 7.11547 48.3125 7.71249C49.7538 8.30951 50.9858 9.32054 51.8525 10.6177C52.7193 11.9148 53.1819 13.4399 53.1819 15C53.1787 17.0911 52.3466 19.0956 50.868 20.5742C49.3894 22.0528 47.3849 22.8848 45.2939 22.8881ZM104.013 2.17505C101.476 2.17486 98.9966 2.92686 96.8874 4.33597C94.7782 5.74508 93.1343 7.748 92.1634 10.0914C91.1926 12.4348 90.9384 15.0136 91.4332 17.5014C91.9279 19.9893 93.1493 22.2747 94.9429 24.0683C96.7364 25.862 99.0216 27.0837 101.51 27.5786C103.997 28.0735 106.576 27.8195 108.92 26.8489C111.263 25.8783 113.266 24.2344 114.675 22.1253C116.085 20.0162 116.837 17.5366 116.837 15C116.833 11.6 115.481 8.34041 113.077 5.93615C110.673 3.53188 107.413 2.17929 104.013 2.17505ZM104.013 22.8881C102.453 22.8883 100.928 22.4257 99.6303 21.5591C98.333 20.6925 97.3218 19.4606 96.7246 18.0193C96.1274 16.578 95.9711 14.9919 96.2753 13.4617C96.5796 11.9316 97.3308 10.526 98.4339 9.42275C99.537 8.31949 100.943 7.56813 102.473 7.26369C104.003 6.95925 105.589 7.1154 107.03 7.7124C108.472 8.30939 109.704 9.32041 110.571 10.6176C111.437 11.9148 111.9 13.4399 111.9 15C111.897 17.0909 111.065 19.0952 109.586 20.5738C108.108 22.0524 106.104 22.8846 104.013 22.8881ZM74.6529 2.17505C72.1163 2.17505 69.6367 2.92723 67.5277 4.33646C65.4186 5.74569 63.7748 7.74868 62.8041 10.0921C61.8334 12.4356 61.5795 15.0142 62.0743 17.502C62.5692 19.9898 63.7906 22.275 65.5842 24.0686C67.3778 25.8623 69.663 27.0837 72.1508 27.5786C74.6386 28.0735 77.2173 27.8195 79.5608 26.8489C81.9043 25.8782 83.9072 24.2344 85.3165 22.1252C86.7257 20.0161 87.4779 17.5365 87.4779 15C87.4739 11.5998 86.1214 8.34009 83.7171 5.9358C81.3128 3.5315 78.0531 2.17902 74.6529 2.17505ZM74.6529 22.8881C73.1993 22.8888 71.7739 22.4879 70.5338 21.7295C69.2938 20.9712 68.2873 19.8852 67.6256 18.591C66.964 17.2968 66.6727 15.8448 66.7841 14.3956C66.8955 12.9463 67.4051 11.556 68.2568 10.3781C69.1085 9.20031 70.2691 8.28066 71.6104 7.72076C72.9518 7.16085 74.4218 6.98247 75.8581 7.20529C77.2945 7.42812 78.6413 8.04348 79.75 8.98347C80.8587 9.92345 81.6861 11.1515 82.1409 12.532H74.6529V17.468H82.1409C81.62 19.0433 80.6164 20.4148 79.2723 21.3876C77.9283 22.3605 76.3121 22.8853 74.6529 22.8881Z" fill="white" fill-opacity="0.8"/>
</svg>
