<svg width="236" height="60" viewBox="0 0 236 60" fill="none" xmlns="http://www.w3.org/2000/svg">
<path d="M27.2104 11.7352V4.23523H3.61035V55.7647H27.2104V48.2647C22.3759 48.2647 17.7394 46.3402 14.3209 42.915C10.9025 39.4897 8.98199 34.8441 8.98199 30C8.98199 25.1558 10.9025 20.5101 14.3209 17.0848C17.7394 13.6596 22.3759 11.7352 27.2104 11.7352Z" fill="white" fill-opacity="0.8"/>
<path d="M27.2104 11.7352V48.2647C32.0449 48.2647 36.6814 46.3402 40.0999 42.915C43.5184 39.4897 45.4388 34.8441 45.4388 30C45.4388 25.1558 43.5184 20.5101 40.0999 17.0848C36.6814 13.6596 32.0449 11.7352 27.2104 11.7352Z" fill="white" fill-opacity="0.8"/>
<path d="M58.6831 16.3235H63.9667V41.8235H58.6831V16.3235Z" fill="white" fill-opacity="0.8"/>
<path d="M66.9251 33.0882C66.9251 31.2537 67.4688 29.4604 68.4872 27.9357C69.5055 26.4109 70.9526 25.2235 72.6453 24.5238C74.338 23.8242 76.1998 23.6439 77.9948 24.0057C79.7898 24.3674 81.4372 25.2551 82.7282 26.556C84.0191 27.8571 84.8957 29.5128 85.2465 31.3135C85.5972 33.1142 85.4066 34.9786 84.6986 36.6706C83.9906 38.3624 82.7974 39.8058 81.2699 40.8173C79.7424 41.829 77.9495 42.3634 76.1186 42.3529C74.9042 42.3625 73.7001 42.129 72.577 41.6659C71.4539 41.2031 70.4341 40.5201 69.5779 39.6574C68.7216 38.7944 68.046 37.7688 67.5904 36.6408C67.1349 35.5128 66.9088 34.305 66.9251 33.0882ZM80.1693 33.0882C80.1485 32.2973 79.8955 31.53 79.4418 30.8825C78.9881 30.2349 78.3541 29.7357 77.6186 29.4473C76.8833 29.1589 76.0795 29.0942 75.3077 29.2613C74.5358 29.4282 73.8303 29.8195 73.2792 30.3863C72.7281 30.9529 72.356 31.6698 72.2094 32.4473C72.0629 33.2248 72.1483 34.0283 72.4551 34.7573C72.7619 35.4863 73.2764 36.1087 73.9343 36.5462C74.5922 36.9838 75.3641 37.2173 76.1538 37.2177C76.6915 37.2282 77.2255 37.1275 77.7225 36.9217C78.2195 36.7161 78.6688 36.4099 79.0423 36.0224C79.4159 35.6349 79.7056 35.1741 79.8935 34.6694C80.0814 34.1645 80.1633 33.6263 80.1341 33.0882H80.1693Z" fill="white" fill-opacity="0.8"/>
<path d="M106.218 24.3529V40.9588C106.218 46.8176 101.639 49.3059 97.0066 49.3059C95.3727 49.4402 93.7339 49.1149 92.2748 48.3667C90.8154 47.6185 89.5935 46.4769 88.7466 45.0706L93.2024 42.4941C93.5634 43.2236 94.1378 43.8254 94.8489 44.2195C95.5601 44.6135 96.3741 44.7812 97.1827 44.7C97.6978 44.7635 98.2206 44.7124 98.7135 44.55C99.2066 44.3875 99.6577 44.118 100.035 43.7605C100.412 43.4029 100.705 42.9665 100.894 42.4821C101.083 41.9979 101.163 41.4776 101.128 40.9588V39.3529C100.513 40.0999 99.7327 40.6929 98.8493 41.085C97.9657 41.4771 97.0032 41.6575 96.0379 41.6118C93.7024 41.6118 91.4627 40.6821 89.8112 39.0274C88.1597 37.3728 87.2319 35.1284 87.2319 32.7882C87.2319 30.4481 88.1597 28.2039 89.8112 26.5491C91.4627 24.8944 93.7024 23.9647 96.0379 23.9647C97.0032 23.919 97.9657 24.0994 98.8493 24.4915C99.7327 24.8836 100.513 25.4765 101.128 26.2235V24.4588L106.218 24.3529ZM101.128 32.7353C101.163 31.8911 100.945 31.0555 100.503 30.3362C100.06 29.6169 99.4129 29.0467 98.6441 28.6989C97.8755 28.3511 97.0208 28.2417 96.1895 28.3846C95.3584 28.5275 94.5888 28.9163 93.9799 29.5009C93.3711 30.0856 92.9507 30.8395 92.7728 31.6655C92.595 32.4916 92.6677 33.3519 92.9817 34.1361C93.2959 34.9204 93.8369 35.5925 94.5353 36.0662C95.2337 36.5398 96.0576 36.7934 96.9009 36.7941C97.4513 36.8338 98.0037 36.7574 98.5226 36.57C99.0416 36.3824 99.5157 36.0879 99.9139 35.7053C100.312 35.3229 100.626 34.8609 100.835 34.3493C101.044 33.8377 101.144 33.2878 101.128 32.7353Z" fill="white" fill-opacity="0.8"/>
<path d="M109.194 33.0882C109.194 31.255 109.737 29.4632 110.754 27.9392C111.77 26.4152 113.215 25.2277 114.906 24.5271C116.596 23.8263 118.456 23.6439 120.251 24.0028C122.045 24.3618 123.692 25.2459 124.985 26.5433C126.277 27.8409 127.156 29.4933 127.511 31.2916C127.866 33.09 127.68 34.9533 126.978 36.6459C126.275 38.3386 125.087 39.7842 123.564 40.8002C122.042 41.8161 120.252 42.3565 118.423 42.3529C117.206 42.3648 115.999 42.133 114.873 41.6714C113.747 41.2098 112.724 40.5275 111.864 39.6646C111.005 38.8016 110.326 37.7755 109.867 36.6462C109.409 35.517 109.18 34.3073 109.194 33.0882ZM122.438 33.0882C122.417 32.2966 122.164 31.5286 121.709 30.8806C121.255 30.2328 120.62 29.7335 119.883 29.4457C119.147 29.1579 118.342 29.0942 117.57 29.2627C116.798 29.431 116.092 29.8242 115.542 30.3926C114.991 30.961 114.621 31.6796 114.476 32.4582C114.332 33.2368 114.42 34.0408 114.729 34.7695C115.038 35.4983 115.556 36.1193 116.216 36.5548C116.876 36.9902 117.65 37.2208 118.44 37.2176C118.978 37.2282 119.512 37.1275 120.009 36.9217C120.506 36.7161 120.955 36.4099 121.329 36.0224C121.702 35.6349 121.992 35.1741 122.18 34.6694C122.368 34.1645 122.45 33.6263 122.421 33.0882H122.438Z" fill="white" fill-opacity="0.8"/>
<path d="M130.1 19.6765C130.1 19.0553 130.283 18.4479 130.628 17.9313C130.972 17.4147 131.462 17.0121 132.035 16.7744C132.608 16.5366 133.238 16.4744 133.846 16.5956C134.454 16.7168 135.013 17.016 135.451 17.4553C135.89 17.8946 136.188 18.4544 136.309 19.0636C136.43 19.6729 136.368 20.3045 136.131 20.8786C135.894 21.4525 135.492 21.943 134.976 22.2882C134.461 22.6334 133.855 22.8176 133.235 22.8176C132.406 22.8085 131.614 22.4746 131.028 21.8875C130.442 21.3003 130.109 20.5068 130.1 19.6765ZM130.61 24.3529H135.894V41.8235H130.61V24.3529Z" fill="white" fill-opacity="0.8"/>
<path d="M158.508 33.0882C158.567 34.2501 158.396 35.4123 158.005 36.5078C157.615 37.6034 157.011 38.6107 156.231 39.4717C155.45 40.3328 154.507 41.0306 153.456 41.5251C152.405 42.0196 151.267 42.3008 150.107 42.3529C149.122 42.4186 148.136 42.2606 147.221 41.8909C146.306 41.521 145.487 40.9491 144.823 40.2176V48.847H139.54V24.3529H144.823V25.9941C145.487 25.2647 146.308 24.6954 147.223 24.3287C148.138 23.9618 149.124 23.8073 150.107 23.8764C151.262 23.9285 152.396 24.2082 153.443 24.6993C154.49 25.1904 155.431 25.8836 156.211 26.739C156.991 27.5943 157.596 28.5953 157.99 29.6848C158.384 30.7741 158.56 31.9306 158.508 33.0882ZM153.224 33.0882C153.203 32.2685 152.941 31.4733 152.471 30.8022C152.002 30.1311 151.344 29.6137 150.582 29.3153C149.82 29.0167 148.987 28.9503 148.187 29.1241C147.388 29.298 146.657 29.7046 146.087 30.2927C145.517 30.8809 145.133 31.6246 144.983 32.4307C144.833 33.2366 144.924 34.069 145.244 34.8236C145.564 35.578 146.099 36.2211 146.783 36.6721C147.466 37.1232 148.267 37.362 149.085 37.3588C149.646 37.3826 150.205 37.2875 150.726 37.0796C151.247 36.8717 151.719 36.5558 152.11 36.1526C152.5 35.7494 152.802 35.2678 152.994 34.7398C153.186 34.2116 153.264 33.6488 153.224 33.0882Z" fill="white" fill-opacity="0.8"/>
<path d="M174.587 36.5823C174.587 40.6059 171.065 42.3176 167.331 42.3176C165.808 42.4549 164.279 42.1315 162.942 41.389C161.604 40.6466 160.52 39.5193 159.828 38.1529L164.372 35.5765C164.552 36.2061 164.942 36.7548 165.478 37.1306C166.013 37.5065 166.661 37.6867 167.313 37.6412C168.564 37.6412 169.198 37.2529 169.198 36.547C169.198 34.6235 160.621 35.647 160.621 29.5941C160.621 25.7823 163.826 23.8765 167.454 23.8765C168.833 23.8145 170.203 24.1281 171.419 24.7837C172.634 25.4393 173.65 26.4125 174.358 27.6L169.814 30C169.613 29.5447 169.285 29.1575 168.87 28.885C168.454 28.6126 167.968 28.4666 167.472 28.4647C166.556 28.4647 166.01 28.8176 166.01 29.4353C166.01 31.447 174.587 30.1235 174.587 36.5823Z" fill="white" fill-opacity="0.8"/>
<path d="M193.731 24.3529V41.8235H188.448V40.1823C187.847 40.9088 187.085 41.4836 186.223 41.8607C185.36 42.2378 184.422 42.4064 183.481 42.3529C179.959 42.3529 176.947 39.8294 176.947 35.1176V24.3529H182.231V34.3235C182.189 34.7403 182.238 35.1612 182.375 35.5572C182.513 35.953 182.733 36.3144 183.022 36.6166C183.312 36.9185 183.664 37.1539 184.054 37.3066C184.443 37.459 184.86 37.525 185.278 37.5C187.18 37.5 188.518 36.3706 188.518 33.9706V24.3529H193.731Z" fill="white" fill-opacity="0.8"/>
<path d="M223.672 31.0941V41.8235H218.388V31.553C218.388 29.7882 217.56 28.6941 215.887 28.6941C214.214 28.6941 213.157 29.9118 213.157 31.9765V41.8235H207.874V31.553C207.874 29.7882 207.046 28.6941 205.373 28.6941C203.7 28.6941 202.643 29.9118 202.643 31.9765V41.8235H197.359V24.353H202.643V25.9588C203.191 25.2494 203.904 24.6875 204.723 24.324C205.54 23.9605 206.437 23.8066 207.328 23.8765C208.221 23.8297 209.112 24.0168 209.911 24.419C210.711 24.8211 211.393 25.4248 211.889 26.1706C212.47 25.3913 213.238 24.7722 214.122 24.3711C215.005 23.9698 215.977 23.7997 216.944 23.8765C221.065 23.8765 223.672 26.7353 223.672 31.0941Z" fill="white" fill-opacity="0.8"/>
<path d="M228.11 24.247C230.25 24.247 231.985 22.5088 231.985 20.3647C231.985 18.2205 230.25 16.4823 228.11 16.4823C225.97 16.4823 224.235 18.2205 224.235 20.3647C224.235 22.5088 225.97 24.247 228.11 24.247Z" fill="white" fill-opacity="0.8"/>
</svg>
